<?xml version="1.0" encoding="UTF-8"?>
<svg id="Layer_1" data-name="Layer 1" xmlns="http://www.w3.org/2000/svg" viewBox="0 0 435.02 311.77">
  <path d="M393.19,218.67c-1.72,1.49-3.07,2.95-4.75.99-1.73-2.02-.05-3.14,1.12-4.39,1.88-2,3.62-4.07,4.05-6.83-1.13-1-1.74.19-2.53.25-1.16.09-2.32.15-2.96-1.05-.63-1.18-.15-2.16.79-2.98,1.98-1.74,3.69-3.7,5.24-5.85,1.57-2.18,3.27-1.85,4.91.07,1.37,1.62,2.79,3.2,4.25,4.73,1.22,1.27,2.82,2.46,1.42,4.43-1.29,1.82-2.97,1.36-4.68-.05-.46,3.26,1.45,4.96,3.1,6.78,1.23,1.36,3.15,2.57,1.81,4.74-1.24,2.01-3.07.89-4.74.31-1.19,3.28,1.07,4.95,2.9,6.76,1.05,1.04,2.54,1.86,1.89,3.7-.54,1.55-1.8,1.92-3.33,1.72-2.25-.31-1.48,1.51-1.65,2.53-.25,1.45-.1,2.83,1.9,2.87,2.5.05,5,.1,7.5.11,6,.04,12,.05,18,.09,1.63,0,3.24.05,4.73.9,1.94,1.11,2.9,2.74,2.54,4.97-.35,2.19-1.96,3.09-3.95,3.39-.98.15-1.99.09-2.99.09-140.12,0-280.25,0-420.37-.01-.38,0-.75,0-1.12,0-3.03.03-5.58-.79-6.07-4.22-.35-2.47,2.42-4.94,5.93-5.02,7.62-.18,15.25-.08,22.87-.15,6.21-.06,6.21-.09,6.21-6.45,0-.62,0-1.24,0-1.87-.36,0-.66-.09-.83.01-1.74,1.11-3.69,3.23-5.49.85-1.74-2.29.74-3.71,2.2-5.2,2.14-2.19,4.58-4.28,4.2-8.21-.88.59-1.44,1.03-2.06,1.36-1.3.7-2.64.96-3.77-.26-1.33-1.44-.24-2.48.69-3.53,2.16-2.43,4.39-4.8,6.43-7.32,1.59-1.95,2.93-2.01,4.52-.07,1.97,2.42,4.03,4.78,6.06,7.14.89,1.04,2.15,1.99.83,3.5-1.23,1.4-2.59,1.23-3.98.17-.48-.37-1.01-.66-1.57-1.02-1.17,2.57.25,4.18,1.65,5.8,1.14,1.33,2.28,2.65,3.41,3.99.88,1.05,2.05,2.1.87,3.58-1.15,1.43-2.59,1.18-4.05.42-.63-.33-1.07-1.12-1.95-.86-.07.11-.19.19-.2.29q-.83,7.56,6.78,7.54,9.65-.03,9.65-9.81c0-18.62.33-37.26-.2-55.87-.23-8.14,2.55-14.49,7.44-20.48,13.36-16.38,27.58-31.99,42.06-47.37,2.9-3.08,4.43-6.13,4.3-10.55-.33-11.24-.12-22.5-.1-33.75.01-4.88.84-5.71,5.63-5.74,6.62-.04,13.25-.09,19.87,0,4.08.05,5.04,1.12,5.07,5.2.04,5,.21,10.01-.04,15-.16,3.18.91,3.95,3.99,3.94,29.75-.14,59.5-.16,89.25-.15,24.37,0,48.75.15,73.12.05,3.86-.02,6.41,1.08,8.8,4.26,17.64,23.48,35.37,46.89,53.31,70.14,4.95,6.41,7.46,12.97,7.23,21.3-.55,19.99-.15,40-.29,59.99-.02,2.95.78,4.03,3.75,3.77,2.73-.24,5.5-.04,8.25-.09,2.81-.05,4.23-2.38,3.13-4.94-.35-.82-.79-.78-1.43-.48-1.7.81-2.97.17-3.73-1.36-.82-1.64.6-2.52,1.51-3.46,2.08-2.14,4.41-4.11,3.68-8.37ZM332.56,200.35h-.06c0,9.75,0,19.5,0,29.25,0,7.75,0,7.6,7.57,7.76,2.98.06,3.75-.83,3.74-3.76-.1-21.62-.04-43.24.03-64.87,0-2.91-.58-6.83,3.82-6.73,4.15.1,3.4,3.9,3.41,6.67.06,21.62.11,43.24.02,64.87-.01,2.86.63,4.07,3.71,3.83,3.35-.26,6.77-.3,10.11,0,3.46.32,4.14-1.09,4.11-4.26-.16-20-.2-39.99-.12-59.99.02-5.09-1.19-9.56-4.3-13.62-7.21-9.43-14.26-18.98-21.47-28.41-9.41-12.31-18.94-24.52-28.33-36.85-1.9-2.5-3.28-3.26-5.54-.28-2.25,2.97-5.04,5.54-7.57,8.29-16.59,18.01-32.81,36.39-49.93,53.87-8.16,8.33-11.27,17.02-10.58,28.59.98,16.31.33,32.73.23,49.1-.02,2.75.68,3.83,3.54,3.6,2.98-.24,6.01-.23,8.99,0,2.95.23,3.82-.79,3.79-3.76-.15-16-.1-32-.11-47.99,0-6.37-.03-12.75.07-19.12.04-2.48,1.15-4.64,3.87-4.66,2.93-.02,3.48,2.27,3.47,4.76-.03,6-.02,12,0,18,.05,16.37.1,32.75.21,49.12,0,1.22-.75,3.19,1.24,3.4,2.58.27,5.48.64,7.75-.28,1.82-.74.75-3.61.76-5.52.03-15.5.04-31-.1-46.49-.03-3.63,1.07-5.33,4.95-4.94,2.72.27,5.5-.06,8.24.07,2.13.1,2.89-.73,2.82-2.82-.11-3.62-.07-7.25-.04-10.87.02-2.34.76-4.43,3.45-4.48,2.8-.05,3.83,1.88,3.83,4.5,0,3.5.16,7,.04,10.5-.09,2.49.88,3.2,3.3,3.15,7-.14,14-.16,20.99.02,2.72.07,3.45-.92,3.3-3.45-.18-3.11-.01-6.25-.06-9.37-.04-2.69.31-5.44,3.61-5.44,3.23,0,3.27,2.76,3.27,5.26-.02,11.12-.01,22.25-.01,33.37ZM95.54,159.1s0,.04,0,.06c6.62,0,13.24-.12,19.86.06,2.62.07,4.46-.82,6.21-2.68,21.02-22.42,42.81-44.08,64.38-65.96.76-.77,2.17-1.48,1.77-2.63-.45-1.3-1.98-.64-3.01-.64-11.49-.06-22.99-.06-34.48-.08-7.63,0-7.83,0-7.59,7.57.15,4.82-.93,8.9-4.7,12.03-1.22,1.01-2.55,2.43-4.29,1.36-1.58-.97-1.62-2.72-1.19-4.38.69-2.67,1.08-5.36,1.06-8.14-.07-7.99,0-15.99-.03-23.99-.04-8.53-.07-8.37-8.49-8.5-3.11-.05-3.73,1.1-3.71,3.89.07,9.99-.14,19.99-.06,29.98.02,3.07-.84,5.52-2.91,7.78-6.82,7.46-13.52,15.05-20.29,22.55-8.45,9.37-16.97,18.67-24.58,28.76-.55.73-1.7,1.47-.99,2.55.52.79,1.62.39,2.45.39,6.87.03,13.74.01,20.61.01ZM150.1,237.35v.02c25.1,0,50.2,0,75.3,0q6.55,0,6.54-6.5c0-4.79,0-4.81-4.93-4.81-50.7-.02-101.4-.04-152.1-.06-7.28,0-7.08,0-7.31,7.28-.11,3.38.98,4.15,4.2,4.14,26.1-.12,52.2-.07,78.3-.07ZM149.76,179.39h0c25.99-.01,51.98,0,77.98-.04,1.32,0,3.41.67,3.8-.65.88-2.98.92-6.29.07-9.24-.64-2.22-3.28-1.13-4.99-1.14-50.61-.06-101.22-.06-151.83-.07-7.15,0-6.95,0-7.19,7.07-.12,3.37.92,4.15,4.19,4.13,25.99-.13,51.98-.08,77.98-.08ZM200.59,158.26c.17.27.34.53.51.8,3.12,0,6.24-.12,9.35.04,2.09.11,3.52-.72,4.9-2.15,21.41-22.19,42.86-44.35,64.25-66.55.77-.8,2.13-1.45,1.69-3.21-1.61,0-3.26.2-4.84-.04-4.89-.74-8.26,1.19-11.66,4.78-16.11,17.06-32.59,33.78-48.81,50.74-5.04,5.27-10.12,10.52-15.39,15.58ZM153.27,158.96c4.3,0,7.51-.08,10.72.03,1.92.07,3.25-.61,4.55-2.01,20.61-22.14,41.92-43.61,63.09-65.21.87-.89,1.71-1.83,2.41-2.85.44-.64.51-1.69-.61-1.59-4.73.42-9.6-1.52-13.9,3.02-18.14,19.14-36.62,37.95-54.98,56.88-3.54,3.66-7.06,7.34-11.29,11.73ZM136.62,158.96c5.11,1.42,7.91-1.45,11.14-4.85,19.09-20.07,38.46-39.87,57.74-59.77,1.65-1.7,3.31-3.4,4.89-5.16.55-.62,1.23-1.97-.21-1.86-4.71.37-9.57-1.64-13.9,2.9-20.42,21.39-41.19,42.44-61.77,63.67-1.38,1.42-4.28,2.71-3.41,4.7.64,1.48,3.66.19,5.52.37ZM313.65,213.71h-.04c0-7.12-.06-14.25.04-21.37.03-2.15-.47-3.17-2.89-3.1-5.49.15-11,.11-16.49,0-1.99-.04-2.61.74-2.59,2.63.07,6.25.09,12.5,0,18.74-.03,2.01.74,2.58,2.64,2.52,3.62-.12,7.25-.06,10.87-.04,1.9,0,3.95-.14,4.03,2.65.09,2.91-2.01,3.1-4.08,3.16-3.62.1-7.25.16-10.87.07-1.98-.05-2.62.71-2.57,2.64.11,4.25.16,8.5.02,12.74-.08,2.26.61,3.08,2.95,3.02,5.37-.14,10.75-.14,16.12.01,2.38.07,2.95-.83,2.91-3.05-.12-6.87-.04-13.75-.04-20.62ZM176.64,158.99c4.72,0,8.53,0,12.34,0,1.14,0,1.74-.87,2.43-1.58,21.33-22.11,42.66-44.21,63.97-66.34.97-1,2.34-1.84,2.42-3.54-6.83-1.09-12.15-.09-17.33,5.5-16.98,18.3-34.72,35.9-52.15,53.79-3.7,3.8-7.35,7.66-11.67,12.17ZM224.48,158.67c7.56,1.25,13.51.36,19.07-5.96,16.47-18.73,33.71-36.79,50.65-55.11,2.37-2.57,4.8-5.08,7.11-7.7.55-.62,1.82-1.4.58-2.44-1.3-1.09-9.95.25-11.28,1.63-21.44,22.32-42.88,44.64-64.32,66.96-.67.7-1.58,1.25-1.81,2.62ZM177.72,203.09h.02c0-3.62-.08-7.24.03-10.86.06-2.03-.52-2.92-2.72-2.89-6.61.09-13.23.06-19.84-.03-1.93-.03-2.65.64-2.63,2.59.08,7.49.08,14.98.02,22.47-.02,1.98.78,2.57,2.67,2.55,6.61-.07,13.23-.07,19.84,0,1.92.02,2.69-.66,2.64-2.61-.09-3.74-.03-7.49-.03-11.23ZM146.34,203.07c0-3.62-.12-7.25.05-10.87.1-2.05-.36-2.95-2.61-2.91-6.62.11-13.25.09-19.87.02-1.84-.02-2.76.48-2.73,2.51.09,7.5.11,14.99.09,22.49,0,1.93.76,2.62,2.68,2.6,6.62-.08,13.25-.09,19.87,0,1.97.03,2.62-.66,2.56-2.6-.12-3.75-.03-7.5-.04-11.25ZM209.36,218.16s0,.05,0,.07c4.99,0,9.98,0,14.97,0,7.75,0,7.65,0,7.66-7.63,0-2.58-.73-3.42-3.36-3.39-11.35.13-22.7.06-34.05.06-7.95,0-7.86,0-7.72,7.96.04,2.34.84,3,3.05,2.97,6.48-.1,12.97-.04,19.46-.04ZM89.74,207.26v.02c-4.87,0-9.74,0-14.61,0-7.49.01-7.34.02-7.48,7.44-.05,2.88.89,3.58,3.61,3.54,10.99-.13,21.97.06,32.96-.07,9.02-.1,7.38,1.79,7.63-8.04.06-2.33-.76-2.99-3.02-2.94-6.36.13-12.73.04-19.1.04ZM209.16,198.58s0-.08,0-.11c6.5,0,12.99-.07,19.49.04,2.33.04,3.59-.55,3.24-3.12-.12-.86-.12-1.76,0-2.62.48-3.21-.66-4.33-4.06-4.26-11.36.21-22.73-.01-34.1.11-7.91.09-6.69-1.77-6.89,7.26-.05,2.19.79,2.77,2.83,2.74,6.49-.09,12.99-.03,19.49-.03ZM89.72,198.42v-.05c6.36,0,12.73-.08,19.09.04,2.29.04,3.23-.76,2.99-3.01-.06-.62.02-1.25.03-1.87q.05-4.92-4.71-4.94c-10.98-.03-21.96-.13-32.93-.07-7.52.05-6.23-1.28-6.5,6.52-.09,2.57.67,3.5,3.33,3.43,6.23-.17,12.47-.05,18.71-.05ZM320.52,213.56h-.03c0,6.99.02,13.97-.02,20.96,0,1.67.11,2.86,2.34,2.85,2.16,0,2.41-1.09,2.41-2.81,0-14.1.02-28.2.09-42.3,0-1.85-.18-3.07-2.57-3.01-2.32.05-2.22,1.41-2.22,2.97.01,7.11,0,14.22,0,21.34ZM282.08,213.5c0,6.86-.04,13.72.03,20.59.01,1.17-.8,3,1.48,3.12,2.33.12,1.7-1.72,1.71-2.93.04-13.97.03-27.95-.02-41.92,0-1.2.62-3.07-1.69-2.96-2.26.11-1.47,1.97-1.48,3.14-.07,6.99-.04,13.97-.04,20.96Z" style="fill: #000; stroke-width: 0px;"/>
  <path d="M217.52,267.4c-69.86,0-139.73,0-209.59,0-1.37,0-2.76.04-4.12-.13-2.03-.27-3.63-1.29-3.74-3.51-.11-2.28,1.53-3.44,3.47-3.77,2.07-.35,4.23-.3,6.35-.3,101.24-.03,202.47-.06,303.71-.07,37.99,0,75.99.01,113.98.04,1.49,0,3.03,0,4.45.37,1.84.49,3.06,1.87,2.92,3.86-.14,1.94-1.35,3.25-3.35,3.47-1.73.19-3.49.2-5.24.2-69.61,0-139.23,0-208.84,0v-.16Z" style="fill: #000; stroke-width: 0px;"/>
  <path d="M178.75,289.45c-56.35,0-112.71,0-169.06-.01-2.24,0-4.52.29-6.7-.48-1.8-.63-3.06-1.8-2.99-3.83.07-2.01,1.37-3.21,3.22-3.64,1.32-.31,2.72-.36,4.09-.36,114.33-.06,228.67-.11,343-.14,1,0,2.01.02,2.98.2,2.31.43,4.02,1.67,4,4.2-.02,2.64-1.93,3.58-4.23,3.88-.86.11-1.75.1-2.62.1-57.23,0-114.46,0-171.69,0v.09Z" style="fill: #000; stroke-width: 0px;"/>
  <path d="M137.93,303.89c43.36,0,86.73,0,130.09,0,1.25,0,2.51-.05,3.75.07,2.28.21,3.78,1.35,3.73,3.82-.05,2.38-1.44,3.69-3.75,3.87-1.99.15-3.99.13-5.99.13-86.23,0-172.46,0-258.69-.02-5.16,0-7.33-1.19-6.95-4.11.56-4.25,3.99-3.76,6.97-3.76,43.61-.01,87.23,0,130.84,0h0Z" style="fill: #000; stroke-width: 0px;"/>
  <path d="M101.16,17c.14-10.08,9.7-18.27,19.71-16.83,2.6.37,4.5,1.63,4.46,4.58-.03,2.93-1.8,4.1-4.53,4.41-6.42.73-9.77,2.75-10.06,6.56-.4,5.23,3.48,7.69,7.39,9.76,3.62,1.91,7.62,3.13,10.46,6.34,2.25,2.54,3.64,5.35,3.19,8.83-.26,2.01-1.1,3.63-3.31,3.98-2.21.35-3.9-.34-4.75-2.62-1.6-4.31-4.92-6.59-9.12-8.18-9.29-3.5-13.55-9.03-13.45-16.83Z" style="fill: #000; stroke-width: 0px;"/>
  <path d="M407.72,289.36c-6.75,0-13.49,0-20.24,0-1.25,0-2.51,0-3.73-.21-1.87-.32-3.29-1.34-3.5-3.37-.23-2.19,1.08-3.55,2.97-4.25,1.02-.37,2.21-.4,3.32-.4,13.62,0,27.23.03,40.85.06.87,0,1.75.02,2.62.14,2.61.36,5.21,1.03,5,4.35-.19,3.06-2.66,3.59-5.18,3.71-1.62.07-3.25.02-4.87.03-5.75,0-11.49,0-17.24,0v-.05Z" style="fill: #000; stroke-width: 0px;"/>
  <path d="M420.82,311.71c-3,0-5.99-.02-8.99,0-2.55.02-4.17-1.29-4.23-3.74-.06-2.31,1.68-3.79,3.84-3.86,6.48-.18,12.98-.17,19.46-.03,2.17.05,3.95,1.38,3.91,3.75-.04,2.53-1.88,3.73-4.26,3.82-3.24.12-6.49.03-9.73.03,0,.01,0,.02,0,.03Z" style="fill: #000; stroke-width: 0px;"/>
  <path d="M409.63,76.89c-.25,1.47-1.42,2.08-2.67,2.13-2.84.11-3.59,1.89-4.19,4.24-.42,1.64-.3,4.15-3.05,3.93-2.33-.18-2.45-2.39-2.64-3.99-.3-2.63-1.2-4.13-4.1-4.12-1.37,0-2.86-.53-2.91-2.29-.04-1.51,1.2-2.29,2.46-2.35,3.23-.15,3.97-2.48,4.77-4.91.49-1.48.65-3.52,2.84-3.35,1.75.14,2.39,1.84,2.61,3.29.45,3.06,1.68,5.08,5.07,5.33,1,.07,1.81.83,1.82,2.09Z" style="fill: #000; stroke-width: 0px;"/>
  <path d="M63.19,106.36c-.2,1.64-1.38,2.39-2.81,2.47-2.33.13-3.66.99-3.98,3.47-.2,1.58-.82,3.39-2.84,3.42-2.15.03-2.32-1.95-2.73-3.46-.54-2.01-1.13-3.67-3.79-3.69-1.4-.01-3.22-.57-3.3-2.43-.09-1.91,1.76-1.85,3.02-2.07,2.31-.41,3.36-1.71,3.71-4,.26-1.7.85-3.78,2.9-3.87,2.13-.1,2.81,2,3.01,3.68.31,2.69,1.56,3.94,4.22,4.17,1.23.11,2.4.76,2.6,2.31Z" style="fill: #000; stroke-width: 0px;"/>
  <path d="M381.61,304.08c5.21-.07,7.27,1.02,6.93,3.92-.51,4.41-4.03,3.47-6.9,3.56-1.11.03-2.24.06-3.35-.02-2.41-.18-4.08-1.38-4.03-3.92.05-2.41,1.78-3.38,4-3.53,1.11-.07,2.23-.01,3.35-.01Z" style="fill: #000; stroke-width: 0px;"/>
  <path d="M413.71,127.8c2.3.36,3.97,1.52,4.09,3.99.12,2.38-1.42,3.75-3.65,3.82-2.56.08-4.34-1.38-4.34-4.02,0-2.3,1.67-3.42,3.9-3.79Z" style="fill: #000; stroke-width: 0px;"/>
  <path d="M200.75,43.93c-2.29-.17-4.03-1.25-4.15-3.77-.11-2.37,1.48-3.71,3.68-3.86,2.48-.16,4.04,1.4,4.21,3.78.17,2.34-1.32,3.59-3.74,3.84Z" style="fill: #000; stroke-width: 0px;"/>
  <path d="M320.14,43.48c-2.16-.32-3.88-1.25-3.89-3.67-.01-2.52,1.62-3.97,3.98-3.96,2.39,0,3.97,1.52,3.85,4.04-.11,2.32-1.66,3.45-3.94,3.59Z" style="fill: #000; stroke-width: 0px;"/>
  <path d="M38.57,40.1c2.17.27,4.03,1.09,4.11,3.52.08,2.22-1.13,3.93-3.48,4.08-2.45.15-4.15-1.25-4.31-3.7-.16-2.35,1.44-3.55,3.68-3.9Z" style="fill: #000; stroke-width: 0px;"/>
  <path d="M342.96,3.32c2.43.31,4.05,1.6,4.01,4.04-.04,2.25-1.57,3.71-3.84,3.68-2.41-.03-3.97-1.49-3.97-3.96,0-2.37,1.68-3.38,3.8-3.75Z" style="fill: #000; stroke-width: 0px;"/>
  <path d="M301.7,132.09c0-3.99,0-7.97,0-11.96,0-1.87.37-3.69,2.65-3.79,2.54-.1,2.97,1.79,2.97,3.83,0,6.23.12,12.46-.04,18.69-.08,2.81.61,4.15,3.71,3.85,2.59-.25,5.23-.04,7.84-.05,1.86,0,3.75.28,3.84,2.56.1,2.32-1.73,2.75-3.62,2.75-4.48.01-8.97,0-13.45,0-2.64,0-3.88-1.37-3.89-3.93-.01-3.99,0-7.97,0-11.96Z" style="fill: #000; stroke-width: 0px;"/>
</svg>