<?xml version="1.0" encoding="UTF-8"?>
<svg id="Layer_1" data-name="Layer 1" xmlns="http://www.w3.org/2000/svg" viewBox="0 0 334.5 79.5">
  <path d="M0,79.5V0h334.5v79.5H0ZM325.15,71.89c-.55-1.27-.81-1.94-1.12-2.58-4.81-10.1-9.63-20.2-14.46-30.3-4.4-9.21-8.84-18.41-13.22-27.64-1.12-2.37-2.38-3.98-5.5-3.97-26.06.11-52.11.03-78.17.15-1.34,0-3.08.93-3.93,1.99-1.71,2.14-2.92,4.66-4.68,7.59h25.43c-9.29,18.37-18.25,36.08-27.4,54.16,2.79,0,4.95-.26,7.02.06,2.99.46,4.34-.95,5.55-3.39,7.98-16.11,16.11-32.14,24.08-48.25,1.04-2.11,2.36-2.72,4.63-2.7,11.22.11,22.44.04,33.66.06.92,0,1.84.17,3.46.33-9.35,18.42-18.45,36.35-27.73,54.63,3.81,0,7.05.11,10.28-.07.87-.05,2.1-.78,2.48-1.54,7.74-15.55,15.38-31.16,23.06-46.75.34-.68.84-1.28,1.47-2.21,6.95,15.04,13.95,29.57,20.34,44.37,1.66,3.84,5.52,6.34,9.69,6.02,1.5-.11,3.07.02,5.07.02ZM162.8,71.27c.09.33.19.67.28,1,4.65-1.33,9.63-2,13.88-4.12,7.02-3.51,10.69-11.83,9.23-18.62-1.71-7.98-8.32-13.36-16.97-14.52-4.09-.55-8.14-1.8-12.03-3.21-3.58-1.3-4.78-4.51-4.54-8.1.23-3.37,2.42-5.26,5.53-6.19,4.67-1.4,9.28-1.04,13.8.65,4.03,1.5,6.09.45,7.69-4.67,1.01-3.22-2.11-3.05-3.92-3.89-5.13-2.36-10.61-2.28-16.04-2-7.77.4-14.99,5.87-16.74,12.36-3,11.11,3.22,20.38,14.72,22.3,4.33.73,8.66,1.75,12.8,3.2,3.62,1.27,5.76,5.21,5.41,8.46-.39,3.73-2.9,6.27-7.18,7.35-7.69,1.93-14.69-.06-21.16-4.05-2.17-1.34-3.57-1.2-5.14.52-.61.68-1.24,1.35-1.93,1.94-2.1,1.81-2.8,2.82-.16,4.61,6.83,4.63,14.08,7.5,22.47,6.97ZM9.75,8.02c11.99,21.07,23.81,41.85,36.09,63.43,12.21-21.68,23.98-42.59,36.03-63.99-3.51,0-6.36.14-9.18-.04-2.86-.18-4.38,1.03-5.64,3.55-5.62,11.23-11.41,22.37-17.2,33.51-1.08,2.08-2.44,4.02-4.06,6.66-6.05-11.1-11.79-21.55-17.46-32.03-3.69-6.81-6.59-14.69-17.07-11.58-.12.04-.24.08-1.51.48ZM105.82,7.56v63.51h9.84V7.56h-9.84Z" style="fill: #fff; stroke-width: 0px;"/>
  <path d="M325.15,71.89c-1.24.04-3.02.08-5.18.01-4.1-.13-4.99-.47-5.36-.64-2.68-1.19-3.69-4.22-4.19-5.38-6.4-14.81-13.4-29.36-20.36-44.41-.63.93-1.13,1.53-1.47,2.21-7.68,15.59-15.32,31.19-23.06,46.75-.38.76-1.61,1.49-2.48,1.54-3.23.18-6.47.07-10.28.07,9.28-18.28,18.38-36.2,27.73-54.63-1.62-.16-2.54-.33-3.46-.33-11.22-.02-22.44.05-33.66-.06-2.27-.02-3.58.59-4.63,2.7-.14.28-8.12,16.27-24.08,48.25-.31.62-1.02,1.94-2.46,2.76-1.02.58-2,.67-3.01.72-1.7.09-4.1.12-7.09-.15,9.15-18.08,18.11-35.79,27.4-54.16h-25.43c1.76-2.93,2.98-5.46,4.68-7.59.84-1.06,2.59-1.98,3.93-1.99,26.06-.12,52.11-.04,78.17-.15,3.12-.01,4.37,1.6,5.5,3.97,4.37,9.23,8.81,18.42,13.22,27.64,4.83,10.1,9.64,20.2,14.46,30.3.31.65.57,1.32,1.12,2.58Z" style="fill: #000; stroke-width: 0px;"/>
  <path d="M143.15,66.3c-.83-.39-4.7-2.18-4.53-4.07.05-.49.34-1.17,1.39-2.12.83-.75,1.65-1.52,2.39-2.35,1.58-1.74,2.97-1.88,5.15-.54,6.47,3.98,13.47,5.97,21.16,4.05,4.28-1.07,6.78-3.62,7.18-7.35.34-3.25-1.8-7.19-5.41-8.46-4.13-1.45-8.47-2.48-12.8-3.2-11.5-1.93-17.72-11.19-14.72-22.3,1.75-6.49,8.97-11.96,16.74-12.36,5.43-.28,10.91-.37,16.04,2,1.81.83,4.93.67,3.92,3.89-1.61,5.13-3.66,6.18-7.69,4.67-4.52-1.69-9.13-2.05-13.8-.65-3.11.93-5.3,2.82-5.53,6.19-.24,3.59.96,6.8,4.54,8.1,3.89,1.42,7.95,2.67,12.03,3.21,8.65,1.16,15.26,6.54,16.97,14.52,1.56,7.27-4.02,14.8-9.23,18.62,0,0-11.55,8.47-33.81-1.84Z" style="fill: #000; stroke-width: 0px;"/>
  <path d="M9.82,7.72c3.09-.02,5.77-.02,8.07-.02.52,0,1.42,0,2.35.5,1.64.88,2.22,2.67,2.37,3.06.98,2.68,10,18.01,23.18,39.89,11.64-21.73,20.04-37.44,21.27-40.17.21-.47.91-2.13,2.58-3.01,1.1-.58,2.15-.56,2.72-.56,2.52.03,5.69.03,9.52.05-12.01,21.33-24.02,42.66-36.03,63.99C33.84,50.21,21.83,28.97,9.82,7.72Z" style="fill: #000; stroke-width: 0px;"/>
  <path d="M105.82,7.56h9.84v63.51h-9.84V7.56Z" style="fill: #000; stroke-width: 0px;"/>
</svg>