<?xml version="1.0" encoding="UTF-8"?>
<svg id="Layer_1" data-name="Layer 1" xmlns="http://www.w3.org/2000/svg" viewBox="0 0 123.05 64.92">
  <path d="M123.05,64.74c-.55-1.27-.81-1.94-1.12-2.58-4.81-10.1-9.63-20.2-14.46-30.3-4.4-9.21-8.84-18.41-13.22-27.64-1.12-2.37-2.38-3.98-5.5-3.97-26.06.11-52.11.03-78.17.15-1.34,0-3.08.93-3.93,1.99-1.71,2.14-2.92,4.66-4.68,7.59h25.43C18.11,28.35,9.15,46.06,0,64.15c2.79,0,4.95-.26,7.02.06,2.99.46,4.34-.95,5.55-3.39,7.98-16.11,16.11-32.14,24.08-48.25,1.04-2.11,2.36-2.72,4.63-2.7,11.22.11,22.44.04,33.66.06.92,0,1.84.17,3.46.33-9.35,18.42-18.45,36.35-27.73,54.63,3.81,0,7.05.11,10.28-.07.87-.05,2.1-.78,2.48-1.54,7.74-15.55,15.38-31.16,23.06-46.75.34-.68.84-1.28,1.47-2.21,6.95,15.04,13.95,29.57,20.34,44.37,1.66,3.84,5.52,6.34,9.69,6.02,1.5-.11,3.07.02,5.07.02Z" style="fill: #fff; stroke-width: 0px;"/>
  <path d="M123.05,64.49c-1.24.04-3.02.08-5.18.01-4.1-.13-4.99-.47-5.36-.64-2.68-1.19-3.69-4.22-4.19-5.38-6.4-14.81-13.4-29.36-20.36-44.41-.63.93-1.13,1.53-1.47,2.21-7.68,15.59-15.32,31.19-23.06,46.75-.38.76-1.61,1.49-2.48,1.54-3.23.18-6.47.07-10.28.07,9.28-18.28,18.38-36.2,27.73-54.63-1.62-.16-2.54-.33-3.46-.33-11.22-.02-22.44.05-33.66-.06-2.27-.02-3.58.59-4.63,2.7-.14.28-8.12,16.27-24.08,48.25-.31.62-1.02,1.94-2.46,2.76-1.02.58-2,.67-3.01.72-1.7.09-4.1.12-7.09-.15C9.15,45.81,18.11,28.1,27.4,9.73H1.98c1.76-2.93,2.98-5.46,4.68-7.59.84-1.06,2.59-1.98,3.93-1.99C36.65.03,62.7.11,88.76,0c3.12-.01,4.37,1.6,5.5,3.97,4.37,9.23,8.81,18.42,13.22,27.64,4.83,10.1,9.64,20.2,14.46,30.3.31.65.57,1.32,1.12,2.58Z" style="fill: #000; stroke-width: 0px;"/>
</svg>